# xmcd
#
# Track frame offsets:
#	150
#	21060
#	39120
#	59285
#	80317
#	99895
#	114907
#	136402
#	158330
#
# Disc length: 2386 seconds
#
# Revision: 10
# Processed by: cddbd v1.5.2PL0 Copyright (c) Steve Scherf et al.
# Submitted via: EasyCDDAExtractor 15.3.0.1
#
DISCID=56095009
DTITLE=Celia Cruz - Mi Vida Es Cantar
DYEAR=1998
DGENRE=Latin
TTITLE0=El No Te Quiere Na'
TTITLE1=Mi Vida Es Cantar
TTITLE2=Patica De Chivo
TTITLE3=Me Estan Hablando Del Cielo
TTITLE4=Cal Y Arena
TTITLE5=Siento La Nostalgia De Palmeras
TTITLE6=Canto A Lola Flores
TTITLE7=Salsipuedes
TTITLE8=La Vida Es Un Carnaval
EXTD=
EXTT0=
EXTT1=
EXTT2=
EXTT3=
EXTT4=
EXTT5=
EXTT6=
EXTT7=
EXTT8=
PLAYORDER=
